<svg viewBox="0 0 1200 600" xmlns="http://www.w3.org/2000/svg">
  <!-- Definitions for gradients and patterns -->
  <defs>
    <!-- Gradient for the background -->
    <linearGradient id="bgGradient" x1="0%" y1="0%" x2="100%" y2="100%">
      <stop offset="0%" stop-color="#FBFBFB" />
      <stop offset="100%" stop-color="#EBF2FA" />
    </linearGradient>
    
    <!-- Gradient for the waves -->
    <linearGradient id="waveGradient1" x1="0%" y1="0%" x2="100%" y2="0%">
      <stop offset="0%" stop-color="#C5BAFF" stop-opacity="0.3" />
      <stop offset="50%" stop-color="#C4D9FF" stop-opacity="0.5" />
      <stop offset="100%" stop-color="#E8F9FF" stop-opacity="0.3" />
    </linearGradient>
    
    <linearGradient id="waveGradient2" x1="0%" y1="0%" x2="100%" y2="0%">
      <stop offset="0%" stop-color="#E8F9FF" stop-opacity="0.3" />
      <stop offset="50%" stop-color="#C5BAFF" stop-opacity="0.4" />
      <stop offset="100%" stop-color="#C4D9FF" stop-opacity="0.3" />
    </linearGradient>
  </defs>
  
  <!-- Background -->
  <rect width="100%" height="100%" fill="url(#bgGradient)" />
  
  <!-- First wave - moved lower -->
  <path d="M0,350 C150,300 300,400 450,350 C600,300 750,400 900,350 C1050,300 1200,400 1200,350 L1200,600 L0,600 Z" 
        fill="url(#waveGradient1)" />
  
  <!-- Second wave - moved lower -->
  <path d="M0,400 C150,450 300,350 450,400 C600,450 750,350 900,400 C1050,450 1200,350 1200,400 L1200,600 L0,600 Z" 
        fill="url(#waveGradient2)" />
  
  <!-- Subtle dot pattern for texture -->
  <g opacity="0.15">
    <circle cx="100" cy="100" r="1.5" fill="#4d4864" />
    <circle cx="200" cy="150" r="1.5" fill="#4d4864" />
    <circle cx="300" cy="100" r="1.5" fill="#4d4864" />
    <circle cx="400" cy="150" r="1.5" fill="#4d4864" />
    <circle cx="500" cy="100" r="1.5" fill="#4d4864" />
    <circle cx="600" cy="150" r="1.5" fill="#4d4864" />
    <circle cx="700" cy="100" r="1.5" fill="#4d4864" />
    <circle cx="800" cy="150" r="1.5" fill="#4d4864" />
    <circle cx="900" cy="100" r="1.5" fill="#4d4864" />
    <circle cx="1000" cy="150" r="1.5" fill="#4d4864" />
    <circle cx="1100" cy="100" r="1.5" fill="#4d4864" />
    
    <circle cx="150" cy="200" r="1.5" fill="#4d4864" />
    <circle cx="250" cy="250" r="1.5" fill="#4d4864" />
    <circle cx="350" cy="200" r="1.5" fill="#4d4864" />
    <circle cx="450" cy="250" r="1.5" fill="#4d4864" />
    <circle cx="550" cy="200" r="1.5" fill="#4d4864" />
    <circle cx="650" cy="250" r="1.5" fill="#4d4864" />
    <circle cx="750" cy="200" r="1.5" fill="#4d4864" />
    <circle cx="850" cy="250" r="1.5" fill="#4d4864" />
    <circle cx="950" cy="200" r="1.5" fill="#4d4864" />
    <circle cx="1050" cy="250" r="1.5" fill="#4d4864" />
    <circle cx="1150" cy="200" r="1.5" fill="#4d4864" />
  </g>
</svg>
